<?xml version="1.0" encoding="utf-8"?>
<!-- Generator: Adobe Illustrator 23.0.3, SVG Export Plug-In . SVG Version: 6.00 Build 0)  -->
<svg version="1.1" id="レイヤー_1" xmlns="http://www.w3.org/2000/svg" xmlns:xlink="http://www.w3.org/1999/xlink" x="0px"
	 y="0px" viewBox="0 0 398.1 46.7" style="enable-background:new 0 0 398.1 46.7;" xml:space="preserve">
<style type="text/css">
	.st0{fill:#D85041;}
	.st1{fill:#233D4C;}
	.st2{fill:#7A878C;}
</style>
<g>
	<path class="st0" d="M52.2,20.4L27,0.7c-0.4-0.3-0.9-0.3-1.2,0L0.5,20.4c-0.4,0.3-0.2,0.9,0.3,0.9H13l13-10.2
		c0.2-0.1,0.4-0.1,0.6,0l13,10.2h12.2C52.4,21.3,52.6,20.7,52.2,20.4"/>
	<path class="st0" d="M26.4,35.5c-4.1,0-7-2.2-8.1-3.4c-0.2-0.2-0.2-0.5,0-0.7l1.5-1.3c0.2-0.2,0.5-0.2,0.7,0
		c0.9,0.8,3.1,2.6,6.3,2.5c2.8-0.1,4.8-1.6,5.6-2.4c0.2-0.2,0.5-0.2,0.7,0l1.5,1.3c0.2,0.2,0.2,0.5,0,0.7c-1.2,1.2-3.8,3.2-7.7,3.4
		C26.7,35.5,26.5,35.5,26.4,35.5"/>
	<path class="st1" d="M183.6,7.4h-5.7c-0.2,0-0.3,0.2-0.3,0.3v25.5h0c0,3.3-2.6,5.9-5.9,5.9c-3.1,0-5.7-2.5-5.9-5.6
		c0-0.2-0.2-0.3-0.3-0.3h-5.7c-0.2,0-0.4,0.2-0.4,0.4c0.2,6.6,5.6,11.9,12.3,11.9c6.8,0,12.3-5.5,12.3-12.3h0l0,0V7.8
		C184,7.6,183.8,7.4,183.6,7.4"/>
	<path class="st1" d="M189.1,30.7v-0.1c0-7.6,6-13.8,14.1-13.8c8.1,0,14.1,6.2,14.1,13.7v0.1c0,7.5-6,13.8-14.2,13.8
		C195,44.4,189.1,38.3,189.1,30.7 M211.2,30.7v-0.1c0-4.7-3.4-8.5-8.1-8.5c-4.9,0-8,3.8-8,8.4v0.1c0,4.6,3.4,8.5,8.1,8.5
		C208.1,39.1,211.2,35.3,211.2,30.7"/>
	<path class="st1" d="M100.5,40.7c0.1,0,0.7,0,1.2-0.4c0.5-0.4,0.6-0.9,0.6-1c0.2-1.2,0.4-2.4,0.6-3.6c0-0.2,0.2-0.3,0.3-0.3h4.3
		c0.2,0,0.4,0.2,0.3,0.4c-0.3,1.6-0.5,3.3-0.8,4.9c-0.1,0.6-0.4,2-1.6,3.2c-1.6,1.7-3.5,1.9-4,1.9H90.1c-0.8,0-3.4-0.2-5.2-2.2
		c-1.2-1.3-1.8-2.7-1.8-4.4c0-2.1,0-4.1,0-6.2c0-0.1-0.1-0.1-0.2-0.1l-14.3,1.5c-0.2,0-0.4-0.1-0.4-0.3l-0.5-4.4
		c0-0.2,0.1-0.4,0.3-0.4L83,27.9c0.1,0,0.1-0.1,0.1-0.1v-4.2c0-0.1-0.1-0.2-0.2-0.1c-3,0.5-6,0.8-8.9,1.1c-0.2,0-0.3-0.1-0.4-0.2
		c-0.4-1.3-0.9-2.6-1.3-4c-0.1-0.2,0.1-0.4,0.3-0.5c8.5-1,17.5-2.7,23.1-5.1c0.1-0.1,0.3,0,0.4,0.1l3.6,3.8c0.2,0.2,0.1,0.5-0.1,0.6
		c-3.1,1.2-6.7,2.2-10.5,3c-0.1,0-0.1,0.1-0.1,0.1v4.7c0,0.1,0.1,0.1,0.2,0.1l17.5-1.7c0.2,0,0.4,0.1,0.4,0.3l0.5,4.2
		c0,0.2-0.1,0.4-0.3,0.4c-6,0.6-12,1.3-18.1,1.9c-0.1,0-0.1,0.1-0.1,0.1l0,6.7c0,0.1,0,0.6,0.4,1c0.5,0.5,1.2,0.5,1.3,0.5
		C94,40.7,97.2,40.7,100.5,40.7 M73.8,19h-4.7c-0.2,0-0.3-0.2-0.3-0.3V8.9c0-0.2,0.2-0.3,0.3-0.3h15.6c0.1,0,0.1-0.1,0.1-0.1V5
		c0-0.2,0.2-0.3,0.4-0.3h4.9c0.2,0,0.3,0.2,0.3,0.3v3.4c0,0.1,0.1,0.1,0.1,0.1h15.9c0.2,0,0.3,0.2,0.3,0.3v9.8
		c0,0.2-0.2,0.3-0.3,0.3h-5c-0.2,0-0.3-0.2-0.3-0.3v-5c0-0.1-0.1-0.1-0.1-0.1H74.2c-0.1,0-0.1,0.1-0.1,0.1v5
		C74.1,18.8,73.9,19,73.8,19"/>
	<path class="st1" d="M126.7,19.6c0.2,0,0.4,0.2,0.4,0.4c-0.2,2.6-0.5,5.7-1.2,9c-0.6,2.6-1.2,5-1.9,7c0,0.1,0,0.1,0,0.2
		c4.1,3.2,9.7,3.9,16.2,4c2.5,0,10,0.1,13.5,0c0.2,0,0.4,0.2,0.4,0.3v4.3c0,0.2-0.2,0.3-0.3,0.3l-13.6,0c-7.5,0-13.5-0.9-18.2-4.4
		c-0.1-0.1-0.2,0-0.2,0c-1.3,2.2-2.9,4-4.6,5.4c-0.1,0.1-0.3,0.1-0.5,0l-3.4-3.1c-0.2-0.1-0.1-0.4,0-0.5c1.9-1.4,3.5-3.3,4.8-5.6
		c0,0,0-0.1,0-0.1c-1.6-2.1-2.9-4.9-4-8.2c-0.1-0.2,0-0.4,0.2-0.4l3.5-1.3c0.2-0.1,0.4,0,0.5,0.2c0.5,1.7,1.2,3.1,1.9,4.4
		c0.1,0.2,0.2,0.1,0.3,0c0.6-2.1,1.1-4.4,1.4-7c0,0,0-0.1,0-0.1c0,0,0,0-0.1-0.1c-0.2,0-4.9,0-5.7,0c0,0-0.2,0-0.3-0.1
		c-0.1-0.1-0.2-0.2-0.2-0.2c-0.6-1.2-1.1-2.3-1.7-3.5c0,0-0.1-0.2-0.1-0.4c0-0.1,0.1-0.2,0.1-0.3c1.6-2,6-7.7,6.1-7.9
		c0,0,0.1-0.1,0-0.2c0,0-0.1-0.1-0.1-0.1c-1.9,0-4.2,0-6.2,0c-0.2,0-0.3-0.1-0.3-0.3V7.4c0,0,0-0.2,0.1-0.3c0-0.1,0.2-0.1,0.2-0.1
		c0.2,0,8.4,0,9.5,0c0.1,0,0.3,0,0.4,0.1c0.1,0.1,0.2,0.3,0.2,0.3c0.1,0.3,0.8,1.7,1.7,3.6c0,0.1,0.1,0.2,0.1,0.4c0,0,0,0.2-0.1,0.3
		c-0.2,0.3-2.6,3.4-5.9,7.7c0,0-0.1,0.1,0,0.2c0,0,0.1,0.1,0.2,0.1H126.7z M137,11.4h-7.7c-0.2,0-0.3-0.2-0.3-0.3V7.8
		c0-0.2,0.2-0.4,0.3-0.4h7.8V5c0-0.2,0.2-0.3,0.3-0.3h4.5c0.2,0,0.3,0.2,0.3,0.3v2.5h8.9c0.2,0,0.3,0.2,0.3,0.4v5.5h3
		c0.2,0,0.3,0.2,0.3,0.3V17c0,0.2-0.2,0.3-0.3,0.3h-3v5.5c0,0.2-0.2,0.3-0.3,0.3h-8.8c-0.1,0-0.1,0.1-0.1,0.1V25
		c0,0.1,0.1,0.1,0.1,0.1h9.1c0.2,0,0.3,0.2,0.3,0.3v3.1c0,0.2-0.2,0.3-0.3,0.3h-9.1c-0.1,0-0.1,0.1-0.1,0.1v1.8
		c0,0.1,0.1,0.1,0.1,0.1h11.2c0.2,0,0.3,0.2,0.3,0.3v3.4c0,0.2-0.2,0.3-0.3,0.3h-11.2c-0.1,0-0.1,0.1-0.1,0.1v3.1
		c0,0.2-0.2,0.3-0.3,0.3h-4.5c-0.2,0-0.3-0.2-0.3-0.3v-3.1c0-0.1-0.1-0.1-0.1-0.1h-10.1c-0.2,0-0.3-0.2-0.3-0.3v-3.4
		c0-0.2,0.2-0.3,0.3-0.3H137c0.1,0,0.1-0.1,0.1-0.1v-1.8c0-0.1-0.1-0.1-0.1-0.1h-8.2c-0.2,0-0.3-0.2-0.3-0.3v-3.1
		c0-0.2,0.2-0.3,0.3-0.3h8.2c0.1,0,0.1-0.1,0.1-0.1v-1.7c0-0.1-0.1-0.1-0.1-0.1h-7.9c-0.2,0-0.3-0.2-0.3-0.3v-3.3
		c0-0.2,0.2-0.3,0.3-0.3h7.9c0.1,0,0.1-0.1,0.1-0.1v-1.5c0-0.1-0.1-0.1-0.1-0.1h-10.7c-0.2,0-0.3-0.2-0.3-0.3v-3.4
		c0-0.2,0.2-0.3,0.3-0.3H137c0.1,0,0.1-0.1,0.1-0.1v-1.5C137.1,11.5,137,11.4,137,11.4 M141.9,11.6v1.5c0,0.1,0.1,0.1,0.1,0.1h3.8
		c0.1,0,0.1-0.1,0.1-0.1v-1.5c0-0.1-0.1-0.1-0.1-0.1H142C142,11.4,141.9,11.5,141.9,11.6 M145.8,17.3H142c-0.1,0-0.1,0.1-0.1,0.1V19
		c0,0.1,0.1,0.1,0.1,0.1h3.8c0.1,0,0.1-0.1,0.1-0.1v-1.5C145.9,17.4,145.9,17.3,145.8,17.3"/>
	<path class="st1" d="M236.4,16.8c-3,0-5.6,0.8-7.9,2.3c-0.1,0.1-0.2,0-0.2-0.1V7.8c0-0.2-0.2-0.4-0.3-0.4h-5.4
		c-0.2,0-0.3,0.2-0.3,0.4v22.9v0.1v13.3c0,0.2,0.2,0.3,0.3,0.3h5.4c0.2,0,0.3-0.2,0.3-0.3v-1.7c0-0.1,0.1-0.2,0.2-0.1
		c2.2,1.4,4.8,2.2,7.8,2.2c8.2,0,14.2-6.3,14.2-13.8v-0.1C250.5,23,244.5,16.8,236.4,16.8 M244.4,30.7c0,4.6-3.1,8.4-8,8.4
		c-4.7,0-8.1-3.9-8.1-8.5v-0.1c0-4.6,3.1-8.4,8-8.4c4.8,0,8.1,3.9,8.1,8.5V30.7z"/>
	<path class="st2" d="M278.1,39.8v-9.9c0-0.1,0.1-0.1,0.1-0.1h7.2c0.2,0,0.3-0.1,0.3-0.3v-2.9c0-0.2-0.1-0.3-0.3-0.3h-18.1
		c-0.2,0-0.3,0.1-0.3,0.3v2.9c0,0.2,0.1,0.3,0.3,0.3h7.2c0.1,0,0.1,0.1,0.1,0.1v9.9c0,0.1-0.1,0.1-0.1,0.1h-8.7
		c-0.2,0-0.3,0.1-0.3,0.3v3.1c0,0.2,0.1,0.3,0.3,0.3h21.1c0.2,0,0.3-0.1,0.3-0.3v-3.1c0-0.2-0.1-0.3-0.3-0.3h-8.7
		C278.2,39.9,278.1,39.9,278.1,39.8"/>
	<path class="st2" d="M346.8,41.3v-7.8c0-0.1,0.1-0.1,0.1-0.1h5.8c0.2,0,0.3-0.1,0.3-0.3v-2.6c0-0.2-0.1-0.3-0.3-0.3h-15.1
		c-0.2,0-0.3,0.1-0.3,0.3v2.6c0,0.2,0.1,0.3,0.3,0.3h5.8c0.1,0,0.1,0.1,0.1,0.1v7.8c0,0.1-0.1,0.1-0.1,0.1h-7
		c-0.2,0-0.3,0.1-0.3,0.3v2.7c0,0.2,0.1,0.3,0.3,0.3h17.6c0.2,0,0.3-0.1,0.3-0.3v-2.7c0-0.2-0.1-0.3-0.3-0.3h-7
		C346.9,41.4,346.8,41.4,346.8,41.3"/>
	<path class="st2" d="M305.3,36.9h-14.4c-0.3,0-0.5-0.2-0.5-0.5v-2.8c0-0.3,0.2-0.5,0.5-0.5h14.4c0.3,0,0.5,0.2,0.5,0.5v2.8
		C305.8,36.7,305.6,36.9,305.3,36.9"/>
	<path class="st2" d="M317.9,33.4l-1.5,2.3c-0.1,0.1-0.3,0.2-0.4,0.1c-1.8-1.1-3.5-2.2-5.3-3.3c-0.2-0.1-0.2-0.3-0.1-0.4l1.5-2.3
		c0.1-0.1,0.3-0.2,0.4-0.1l5.3,3.3C317.9,33.1,318,33.3,317.9,33.4 M320.1,39c4.2-2.3,7.6-5.6,9.7-9.1c0.2-0.3,0.4-0.3,0.6,0
		l1.6,2.8c0.1,0.1,0,0.2,0,0.3c-2.4,3.5-6,6.7-10.1,9.1c-2.5,1.4-6.1,2.7-8.3,3.1c-0.1,0-0.3,0-0.3-0.2l-1.6-2.8
		c-0.1-0.2,0-0.4,0.2-0.5C314.6,41.3,317.5,40.5,320.1,39 M321.8,27.7l-1.5,2.3c-0.1,0.1-0.3,0.2-0.4,0.1c-1.8-1.1-3.5-2.2-5.3-3.3
		c-0.2-0.1-0.2-0.3-0.1-0.4L316,24c0.1-0.1,0.3-0.2,0.4-0.1l5.3,3.3C321.9,27.3,321.9,27.5,321.8,27.7 M329.3,28.3l-1.6,0.7
		c-0.2,0.1-0.3,0-0.4-0.1c-0.6-1.2-1.3-2.3-1.9-3.5c-0.1-0.2,0-0.4,0.2-0.5l1.5-0.6c0.1-0.1,0.3,0,0.4,0.1c0.7,1.1,1.4,2.3,2,3.4
		C329.5,28,329.5,28.2,329.3,28.3 M332.9,26.9l-1.6,0.7c-0.1,0.1-0.3,0-0.4-0.1c-0.7-1.1-1.4-2.2-2.1-3.3c-0.1-0.2,0-0.4,0.2-0.5
		l1.6-0.7c0.1-0.1,0.3,0,0.4,0.1c0.7,1.1,1.4,2.2,2.1,3.3C333.1,26.6,333.1,26.9,332.9,26.9"/>
	<path class="st2" d="M368.7,38.5c4.1-2.5,7.4-6.1,9.1-9.4c0.2-0.3,0.4-0.3,0.6,0l1.6,2.9c0,0.1,0,0.2,0,0.3c-2,3.4-5.3,6.9-9.4,9.3
		c-2.5,1.5-5.8,2.9-9.3,3.6c-0.1,0-0.3,0-0.3-0.1l-1.8-2.8c-0.1-0.2,0-0.4,0.2-0.5C363.1,41.2,366.3,40,368.7,38.5 M368.4,30.5
		l-2.2,2.2c-0.1,0.1-0.3,0.1-0.4,0c-2-1.7-4-3.4-5.9-5.1c-0.1-0.1-0.2-0.3,0-0.5l2-2.1c0.1-0.1,0.3-0.1,0.4,0c2,1.7,4.1,3.3,6.1,5
		C368.6,30.1,368.6,30.3,368.4,30.5"/>
	<path class="st2" d="M397.9,34.3c-3.3-1.2-5.8-2.2-9.1-3.4c0,0-0.1-0.1-0.1-0.1l0-6.5c0-0.2-0.1-0.3-0.3-0.3l-3.4,0
		c-0.2,0-0.3,0.1-0.3,0.3l-0.1,20.7c0,0.2,0.1,0.3,0.3,0.3l3.4,0c0.2,0,0.3-0.1,0.3-0.3l0.1-10.2c0-0.1,0.1-0.2,0.2-0.1
		c2.8,1.2,4.7,2.1,7.5,3.2c0.2,0.1,0.4,0,0.4-0.2l1.2-2.9C398.1,34.5,398.1,34.3,397.9,34.3"/>
	<path class="st1" d="M13.1,21.3l3.6,24.4c0,0.3-0.2,0.6-0.5,0.6H12c-0.2,0-0.4-0.1-0.5-0.4l-7-24.7H13.1z"/>
	<path class="st1" d="M39.7,21.3l-3.6,24.4c0,0.3,0.2,0.6,0.5,0.6h4.2c0.2,0,0.4-0.1,0.5-0.4l7-24.7H39.7z"/>
</g>
</svg>
